<?xml version="1.0" encoding="utf-8"?>
<svg version="1.1" xmlns:xlink="http://www.w3.org/1999/xlink" width="17px" height="39px" xmlns="http://www.w3.org/2000/svg">
  <g transform="matrix(1 0 0 1 -395 -405 )">
    <path d="M 7 28.72675  L 7 3.25975  C 6.799123599 1.47225  7.564699712 0.00974999999999893  8.500403852 0.00974999999999893  C 9.436107992 0.00974999999999893  10.20168419 1.47225  10 3.25975  L 10 28.72675  L 14.44297577 20.384  C 15.01630723 19.25625  15.95881647 19.227  16.54745949 20.32225  C 16.8485861 20.88125  17 21.619  17 22.36325  C 17 23.07825  16.86049494 23.79  16.5797838 24.3425  L 9.56880785 38.1355  C 9.288096608 38.688  8.901905993 39  8.500403852 39  C 8.098901711 39  7.712711096 38.688  7.431999854 38.1355  L 0.421023938 24.3425  C -0.152307505 23.22125  -0.138697271 21.42075  0.453348265 20.32225  C 1.041991234 19.227  1.984500491 19.25625  2.557831934 20.384  L 7 28.72675  Z " fill-rule="nonzero" fill="#6a7070" stroke="none" transform="matrix(1 0 0 1 395 405 )" />
  </g>
</svg>