<?xml version="1.0" encoding="utf-8"?>
<svg version="1.1" xmlns:xlink="http://www.w3.org/1999/xlink" width="17px" height="39px" xmlns="http://www.w3.org/2000/svg">
  <g transform="matrix(1 0 0 1 -373 -409 )">
    <path d="M 7 10.27325  L 7 35.74025  C 6.799123599 37.52775  7.564699712 38.99025  8.500403852 38.99025  C 9.436107992 38.99025  10.20168419 37.52775  10 35.74025  L 10 10.27325  L 14.44297577 18.616  C 15.01630723 19.74375  15.95881647 19.773  16.54745949 18.67775  C 16.8485861 18.11875  17 17.381  17 16.63675  C 17 15.92175  16.86049494 15.21  16.5797838 14.6575  L 9.56880785 0.8645  C 9.288096608 0.312  8.901905993 0  8.500403852 0  C 8.098901711 0  7.712711096 0.312  7.431999854 0.8645  L 0.421023938 14.6575  C -0.152307505 15.77875  -0.138697271 17.57925  0.453348265 18.67775  C 1.041991234 19.773  1.984500491 19.74375  2.557831934 18.616  L 7 10.27325  Z " fill-rule="nonzero" fill="#6a7070" stroke="none" transform="matrix(1 0 0 1 373 409 )" />
  </g>
</svg>