<?xml version="1.0" encoding="utf-8"?>
<svg version="1.1" xmlns:xlink="http://www.w3.org/1999/xlink" width="205px" height="39px" xmlns="http://www.w3.org/2000/svg">
  <defs>
    <mask fill="white" id="clip329">
      <path d="M 0 34.125  L 0 4.875  C 0 2.145  3.22142857142855 0  7.32142857142857 0  L 96.6428571428571 0  L 197.678571428571 0  C 201.778571428571 0  205 2.145  205 4.875  L 205 34.125  C 205 36.855  201.778571428571 39  197.678571428571 39  L 7.32142857142857 39  C 3.22142857142855 39  0 36.855  0 34.125  Z " fill-rule="evenodd" />
    </mask>
  </defs>
  <g transform="matrix(1 0 0 1 -59 -922 )">
    <path d="M 0 34.125  L 0 4.875  C 0 2.145  3.22142857142855 0  7.32142857142857 0  L 96.6428571428571 0  L 197.678571428571 0  C 201.778571428571 0  205 2.145  205 4.875  L 205 34.125  C 205 36.855  201.778571428571 39  197.678571428571 39  L 7.32142857142857 39  C 3.22142857142855 39  0 36.855  0 34.125  Z " fill-rule="nonzero" fill="#80ffff" stroke="none" transform="matrix(1 0 0 1 59 922 )" />
    <path d="M 0 34.125  L 0 4.875  C 0 2.145  3.22142857142855 0  7.32142857142857 0  L 96.6428571428571 0  L 197.678571428571 0  C 201.778571428571 0  205 2.145  205 4.875  L 205 34.125  C 205 36.855  201.778571428571 39  197.678571428571 39  L 7.32142857142857 39  C 3.22142857142855 39  0 36.855  0 34.125  Z " stroke-width="2" stroke="#797979" fill="none" transform="matrix(1 0 0 1 59 922 )" mask="url(#clip329)" />
  </g>
</svg>