<?xml version="1.0" encoding="utf-8"?>
<svg version="1.1" xmlns:xlink="http://www.w3.org/1999/xlink" width="205px" height="38px" xmlns="http://www.w3.org/2000/svg">
  <defs>
    <mask fill="white" id="clip330">
      <path d="M 0 33  L 0 5  C 0 2.19999999999999  2.2 0  5 0  L 94.4883720930233 0  L 97.8627450980392 0  L 106.116279069767 0  L 200 0  C 202.8 0  205 2.19999999999999  205 5  L 205 33  C 205 35.8  202.8 38  200 38  L 5 38  C 2.2 38  0 35.8  0 33  Z " fill-rule="evenodd" />
    </mask>
  </defs>
  <g transform="matrix(1 0 0 1 -59 -437 )">
    <path d="M 0 33  L 0 5  C 0 2.19999999999999  2.2 0  5 0  L 94.4883720930233 0  L 97.8627450980392 0  L 106.116279069767 0  L 200 0  C 202.8 0  205 2.19999999999999  205 5  L 205 33  C 205 35.8  202.8 38  200 38  L 5 38  C 2.2 38  0 35.8  0 33  Z " fill-rule="nonzero" fill="#ffffff" stroke="none" transform="matrix(1 0 0 1 59 437 )" />
    <path d="M 0 33  L 0 5  C 0 2.19999999999999  2.2 0  5 0  L 94.4883720930233 0  L 97.8627450980392 0  L 106.116279069767 0  L 200 0  C 202.8 0  205 2.19999999999999  205 5  L 205 33  C 205 35.8  202.8 38  200 38  L 5 38  C 2.2 38  0 35.8  0 33  Z " stroke-width="2" stroke="#797979" fill="none" transform="matrix(1 0 0 1 59 437 )" mask="url(#clip330)" />
  </g>
</svg>