<?xml version="1.0" encoding="utf-8"?>
<svg version="1.1" xmlns:xlink="http://www.w3.org/1999/xlink" width="12px" height="12px" viewBox="325 115  12 12" xmlns="http://www.w3.org/2000/svg">
  <path d="M 331 115  C 334.36 115  337 117.64  337 121  C 337 124.36  334.36 127  331 127  C 327.64 127  325 124.36  325 121  C 325 117.64  327.64 115  331 115  Z " fill-rule="nonzero" fill="#ffffff" stroke="none" />
  <path d="M 331 115.5  C 334.08 115.5  336.5 117.92  336.5 121  C 336.5 124.08  334.08 126.5  331 126.5  C 327.92 126.5  325.5 124.08  325.5 121  C 325.5 117.92  327.92 115.5  331 115.5  Z " stroke-width="1" stroke="#797979" fill="none" />
  <path d="M 331 124  C 329.32 124  328 122.68  328 121  C 328 119.32  329.32 118  331 118  C 332.68 118  334 119.32  334 121  C 334 122.68  332.68 124  331 124  " fill-rule="nonzero" fill="#797979" stroke="none" />
</svg>