<?xml version="1.0" encoding="utf-8"?>
<svg version="1.1" xmlns:xlink="http://www.w3.org/1999/xlink" width="12px" height="12px" viewBox="516 115  12 12" xmlns="http://www.w3.org/2000/svg">
  <path d="M 522 115  C 525.36 115  528 117.64  528 121  C 528 124.36  525.36 127  522 127  C 518.64 127  516 124.36  516 121  C 516 117.64  518.64 115  522 115  Z " fill-rule="nonzero" fill="#ffffff" stroke="none" />
  <path d="M 522 115.5  C 525.08 115.5  527.5 117.92  527.5 121  C 527.5 124.08  525.08 126.5  522 126.5  C 518.92 126.5  516.5 124.08  516.5 121  C 516.5 117.92  518.92 115.5  522 115.5  Z " stroke-width="1" stroke="#797979" fill="none" />
  <path d="M 522 124  C 520.32 124  519 122.68  519 121  C 519 119.32  520.32 118  522 118  C 523.68 118  525 119.32  525 121  C 525 122.68  523.68 124  522 124  " fill-rule="nonzero" fill="#797979" stroke="none" />
</svg>