<?xml version="1.0" encoding="utf-8"?>
<svg version="1.1" xmlns:xlink="http://www.w3.org/1999/xlink" width="12px" height="12px" viewBox="170 120  12 12" xmlns="http://www.w3.org/2000/svg">
  <path d="M 176 120  C 179.36 120  182 122.64  182 126  C 182 129.36  179.36 132  176 132  C 172.64 132  170 129.36  170 126  C 170 122.64  172.64 120  176 120  Z " fill-rule="nonzero" fill="#ffffff" stroke="none" />
  <path d="M 176 120.5  C 179.08 120.5  181.5 122.92  181.5 126  C 181.5 129.08  179.08 131.5  176 131.5  C 172.92 131.5  170.5 129.08  170.5 126  C 170.5 122.92  172.92 120.5  176 120.5  Z " stroke-width="1" stroke="#797979" fill="none" />
  <path d="M 176 129  C 174.32 129  173 127.68  173 126  C 173 124.32  174.32 123  176 123  C 177.68 123  179 124.32  179 126  C 179 127.68  177.68 129  176 129  " fill-rule="nonzero" fill="#797979" stroke="none" />
</svg>