<?xml version="1.0" encoding="utf-8"?>
<svg version="1.1" xmlns:xlink="http://www.w3.org/1999/xlink" width="12px" height="12px" viewBox="365 120  12 12" xmlns="http://www.w3.org/2000/svg">
  <path d="M 371 120  C 374.36 120  377 122.64  377 126  C 377 129.36  374.36 132  371 132  C 367.64 132  365 129.36  365 126  C 365 122.64  367.64 120  371 120  Z " fill-rule="nonzero" fill="#ffffff" stroke="none" />
  <path d="M 371 120.5  C 374.08 120.5  376.5 122.92  376.5 126  C 376.5 129.08  374.08 131.5  371 131.5  C 367.92 131.5  365.5 129.08  365.5 126  C 365.5 122.92  367.92 120.5  371 120.5  Z " stroke-width="1" stroke="#797979" fill="none" />
  <path d="M 371 129  C 369.32 129  368 127.68  368 126  C 368 124.32  369.32 123  371 123  C 372.68 123  374 124.32  374 126  C 374 127.68  372.68 129  371 129  " fill-rule="nonzero" fill="#797979" stroke="none" />
</svg>