<?xml version="1.0" encoding="utf-8"?>
<svg version="1.1" xmlns:xlink="http://www.w3.org/1999/xlink" width="204px" height="51px" xmlns="http://www.w3.org/2000/svg">
  <defs>
    <mask fill="white" id="clip373">
      <path d="M 0 44.625  L 0 6.375  C 0 2.805  3.20571428571427 0  7.28571428571429 0  L 96.1714285714286 0  L 196.714285714286 0  C 200.794285714286 0  204 2.805  204 6.375  L 204 44.625  C 204 48.195  200.794285714286 51  196.714285714286 51  L 7.28571428571429 51  C 3.20571428571427 51  0 48.195  0 44.625  Z " fill-rule="evenodd" />
    </mask>
  </defs>
  <g transform="matrix(1 0 0 1 -59 -411 )">
    <path d="M 0 44.625  L 0 6.375  C 0 2.805  3.20571428571427 0  7.28571428571429 0  L 96.1714285714286 0  L 196.714285714286 0  C 200.794285714286 0  204 2.805  204 6.375  L 204 44.625  C 204 48.195  200.794285714286 51  196.714285714286 51  L 7.28571428571429 51  C 3.20571428571427 51  0 48.195  0 44.625  Z " fill-rule="nonzero" fill="#80ffff" stroke="none" transform="matrix(1 0 0 1 59 411 )" />
    <path d="M 0 44.625  L 0 6.375  C 0 2.805  3.20571428571427 0  7.28571428571429 0  L 96.1714285714286 0  L 196.714285714286 0  C 200.794285714286 0  204 2.805  204 6.375  L 204 44.625  C 204 48.195  200.794285714286 51  196.714285714286 51  L 7.28571428571429 51  C 3.20571428571427 51  0 48.195  0 44.625  Z " stroke-width="2" stroke="#797979" fill="none" transform="matrix(1 0 0 1 59 411 )" mask="url(#clip373)" />
  </g>
</svg>