<?xml version="1.0" encoding="utf-8"?>
<svg version="1.1" xmlns:xlink="http://www.w3.org/1999/xlink" width="205px" height="58px" xmlns="http://www.w3.org/2000/svg">
  <defs>
    <mask fill="white" id="clip335">
      <path d="M 0 50.75  L 0 7.25  C 0 3.19  3.22142857142855 0  7.32142857142857 0  L 96.6428571428571 0  L 197.678571428571 0  C 201.778571428571 0  205 3.19  205 7.25  L 205 50.75  C 205 54.81  201.778571428571 58  197.678571428571 58  L 7.32142857142857 58  C 3.22142857142855 58  0 54.81  0 50.75  Z " fill-rule="evenodd" />
    </mask>
  </defs>
  <g transform="matrix(1 0 0 1 -59 -933 )">
    <path d="M 0 50.75  L 0 7.25  C 0 3.19  3.22142857142855 0  7.32142857142857 0  L 96.6428571428571 0  L 197.678571428571 0  C 201.778571428571 0  205 3.19  205 7.25  L 205 50.75  C 205 54.81  201.778571428571 58  197.678571428571 58  L 7.32142857142857 58  C 3.22142857142855 58  0 54.81  0 50.75  Z " fill-rule="nonzero" fill="#80ffff" stroke="none" transform="matrix(1 0 0 1 59 933 )" />
    <path d="M 0 50.75  L 0 7.25  C 0 3.19  3.22142857142855 0  7.32142857142857 0  L 96.6428571428571 0  L 197.678571428571 0  C 201.778571428571 0  205 3.19  205 7.25  L 205 50.75  C 205 54.81  201.778571428571 58  197.678571428571 58  L 7.32142857142857 58  C 3.22142857142855 58  0 54.81  0 50.75  Z " stroke-width="2" stroke="#797979" fill="none" transform="matrix(1 0 0 1 59 933 )" mask="url(#clip335)" />
  </g>
</svg>