<?xml version="1.0" encoding="utf-8"?>
<svg version="1.1" xmlns:xlink="http://www.w3.org/1999/xlink" width="205px" height="60px" xmlns="http://www.w3.org/2000/svg">
  <defs>
    <mask fill="white" id="clip332">
      <path d="M 0 52.5  L 0 7.5  C 0 3.3  3.22142857142855 0  7.32142857142857 0  L 96.6428571428571 0  L 197.678571428571 0  C 201.778571428571 0  205 3.3  205 7.5  L 205 52.5  C 205 56.7  201.778571428571 60  197.678571428571 60  L 7.32142857142857 60  C 3.22142857142855 60  0 56.7  0 52.5  Z " fill-rule="evenodd" />
    </mask>
  </defs>
  <g transform="matrix(1 0 0 1 -59 -991 )">
    <path d="M 0 52.5  L 0 7.5  C 0 3.3  3.22142857142855 0  7.32142857142857 0  L 96.6428571428571 0  L 197.678571428571 0  C 201.778571428571 0  205 3.3  205 7.5  L 205 52.5  C 205 56.7  201.778571428571 60  197.678571428571 60  L 7.32142857142857 60  C 3.22142857142855 60  0 56.7  0 52.5  Z " fill-rule="nonzero" fill="#ffffff" stroke="none" transform="matrix(1 0 0 1 59 991 )" />
    <path d="M 0 52.5  L 0 7.5  C 0 3.3  3.22142857142855 0  7.32142857142857 0  L 96.6428571428571 0  L 197.678571428571 0  C 201.778571428571 0  205 3.3  205 7.5  L 205 52.5  C 205 56.7  201.778571428571 60  197.678571428571 60  L 7.32142857142857 60  C 3.22142857142855 60  0 56.7  0 52.5  Z " stroke-width="2" stroke="#797979" fill="none" transform="matrix(1 0 0 1 59 991 )" mask="url(#clip332)" />
  </g>
</svg>