<?xml version="1.0" encoding="utf-8"?>
<svg version="1.1" xmlns:xlink="http://www.w3.org/1999/xlink" width="205px" height="53px" xmlns="http://www.w3.org/2000/svg">
  <defs>
    <mask fill="white" id="clip340">
      <path d="M 0 46.375  L 0 6.625  C 0 2.91499999999998  3.22142857142855 0  7.32142857142857 0  L 67 0  L 95 0  L 96.6428571428571 0  L 111 0  L 117 0  L 197.678571428571 0  C 201.778571428571 0  205 2.91499999999998  205 6.625  L 205 46.375  C 205 50.085  201.778571428571 53  197.678571428571 53  L 7.32142857142857 53  C 3.22142857142855 53  0 50.085  0 46.375  Z " fill-rule="evenodd" />
    </mask>
  </defs>
  <g transform="matrix(1 0 0 1 -59 -768 )">
    <path d="M 0 46.375  L 0 6.625  C 0 2.91499999999998  3.22142857142855 0  7.32142857142857 0  L 67 0  L 95 0  L 96.6428571428571 0  L 111 0  L 117 0  L 197.678571428571 0  C 201.778571428571 0  205 2.91499999999998  205 6.625  L 205 46.375  C 205 50.085  201.778571428571 53  197.678571428571 53  L 7.32142857142857 53  C 3.22142857142855 53  0 50.085  0 46.375  Z " fill-rule="nonzero" fill="#ffffff" stroke="none" transform="matrix(1 0 0 1 59 768 )" />
    <path d="M 0 46.375  L 0 6.625  C 0 2.91499999999998  3.22142857142855 0  7.32142857142857 0  L 67 0  L 95 0  L 96.6428571428571 0  L 111 0  L 117 0  L 197.678571428571 0  C 201.778571428571 0  205 2.91499999999998  205 6.625  L 205 46.375  C 205 50.085  201.778571428571 53  197.678571428571 53  L 7.32142857142857 53  C 3.22142857142855 53  0 50.085  0 46.375  Z " stroke-width="2" stroke="#797979" fill="none" transform="matrix(1 0 0 1 59 768 )" mask="url(#clip340)" />
  </g>
</svg>