<?xml version="1.0" encoding="utf-8"?>
<svg version="1.1" xmlns:xlink="http://www.w3.org/1999/xlink" width="205px" height="52px" xmlns="http://www.w3.org/2000/svg">
  <defs>
    <mask fill="white" id="clip336">
      <path d="M 0 45.5  L 0 6.5  C 0 2.86  3.22142857142855 0  7.32142857142857 0  L 96.6428571428571 0  L 197.678571428571 0  C 201.778571428571 0  205 2.86  205 6.5  L 205 45.5  C 205 49.14  201.778571428571 52  197.678571428571 52  L 7.32142857142857 52  C 3.22142857142855 52  0 49.14  0 45.5  Z " fill-rule="evenodd" />
    </mask>
  </defs>
  <g transform="matrix(1 0 0 1 -59 -881 )">
    <path d="M 0 45.5  L 0 6.5  C 0 2.86  3.22142857142855 0  7.32142857142857 0  L 96.6428571428571 0  L 197.678571428571 0  C 201.778571428571 0  205 2.86  205 6.5  L 205 45.5  C 205 49.14  201.778571428571 52  197.678571428571 52  L 7.32142857142857 52  C 3.22142857142855 52  0 49.14  0 45.5  Z " fill-rule="nonzero" fill="#ffffff" stroke="none" transform="matrix(1 0 0 1 59 881 )" />
    <path d="M 0 45.5  L 0 6.5  C 0 2.86  3.22142857142855 0  7.32142857142857 0  L 96.6428571428571 0  L 197.678571428571 0  C 201.778571428571 0  205 2.86  205 6.5  L 205 45.5  C 205 49.14  201.778571428571 52  197.678571428571 52  L 7.32142857142857 52  C 3.22142857142855 52  0 49.14  0 45.5  Z " stroke-width="2" stroke="#797979" fill="none" transform="matrix(1 0 0 1 59 881 )" mask="url(#clip336)" />
  </g>
</svg>