<?xml version="1.0" encoding="utf-8"?>
<svg version="1.1" xmlns:xlink="http://www.w3.org/1999/xlink" width="205px" height="54px" xmlns="http://www.w3.org/2000/svg">
  <defs>
    <mask fill="white" id="clip345">
      <path d="M 0 47.25  L 0 6.75  C 0 2.97  3.22142857142855 0  7.32142857142857 0  L 96.6428571428571 0  L 197.678571428571 0  C 201.778571428571 0  205 2.97  205 6.75  L 205 47.25  C 205 51.03  201.778571428571 54  197.678571428571 54  L 7.32142857142857 54  C 3.22142857142855 54  0 51.03  0 47.25  Z " fill-rule="evenodd" />
    </mask>
  </defs>
  <g transform="matrix(1 0 0 1 -59 -645 )">
    <path d="M 0 47.25  L 0 6.75  C 0 2.97  3.22142857142855 0  7.32142857142857 0  L 96.6428571428571 0  L 197.678571428571 0  C 201.778571428571 0  205 2.97  205 6.75  L 205 47.25  C 205 51.03  201.778571428571 54  197.678571428571 54  L 7.32142857142857 54  C 3.22142857142855 54  0 51.03  0 47.25  Z " fill-rule="nonzero" fill="#80ffff" stroke="none" transform="matrix(1 0 0 1 59 645 )" />
    <path d="M 0 47.25  L 0 6.75  C 0 2.97  3.22142857142855 0  7.32142857142857 0  L 96.6428571428571 0  L 197.678571428571 0  C 201.778571428571 0  205 2.97  205 6.75  L 205 47.25  C 205 51.03  201.778571428571 54  197.678571428571 54  L 7.32142857142857 54  C 3.22142857142855 54  0 51.03  0 47.25  Z " stroke-width="2" stroke="#797979" fill="none" transform="matrix(1 0 0 1 59 645 )" mask="url(#clip345)" />
  </g>
</svg>