<?xml version="1.0" encoding="utf-8"?>
<svg version="1.1" xmlns:xlink="http://www.w3.org/1999/xlink" width="205px" height="50px" xmlns="http://www.w3.org/2000/svg">
  <defs>
    <mask fill="white" id="clip350">
      <path d="M 0 43.75  L 0 6.25  C 0 2.75  3.22142857142855 0  7.32142857142857 0  L 96.6428571428571 0  L 197.678571428571 0  C 201.778571428571 0  205 2.75  205 6.25  L 205 43.75  C 205 47.25  201.778571428571 50  197.678571428571 50  L 7.32142857142857 50  C 3.22142857142855 50  0 47.25  0 43.75  Z " fill-rule="evenodd" />
    </mask>
  </defs>
  <g transform="matrix(1 0 0 1 -59 -468 )">
    <path d="M 0 43.75  L 0 6.25  C 0 2.75  3.22142857142855 0  7.32142857142857 0  L 96.6428571428571 0  L 197.678571428571 0  C 201.778571428571 0  205 2.75  205 6.25  L 205 43.75  C 205 47.25  201.778571428571 50  197.678571428571 50  L 7.32142857142857 50  C 3.22142857142855 50  0 47.25  0 43.75  Z " fill-rule="nonzero" fill="#ffffff" stroke="none" transform="matrix(1 0 0 1 59 468 )" />
    <path d="M 0 43.75  L 0 6.25  C 0 2.75  3.22142857142855 0  7.32142857142857 0  L 96.6428571428571 0  L 197.678571428571 0  C 201.778571428571 0  205 2.75  205 6.25  L 205 43.75  C 205 47.25  201.778571428571 50  197.678571428571 50  L 7.32142857142857 50  C 3.22142857142855 50  0 47.25  0 43.75  Z " stroke-width="2" stroke="#797979" fill="none" transform="matrix(1 0 0 1 59 468 )" mask="url(#clip350)" />
  </g>
</svg>