<?xml version="1.0" encoding="utf-8"?>
<svg version="1.1" xmlns:xlink="http://www.w3.org/1999/xlink" width="205px" height="51px" xmlns="http://www.w3.org/2000/svg">
  <defs>
    <mask fill="white" id="clip348">
      <path d="M 0 44.625  L 0 6.375  C 0 2.80499999999998  3.22142857142855 0  7.32142857142857 0  L 96.6428571428571 0  L 115 0  L 197.678571428571 0  C 201.778571428571 0  205 2.80499999999998  205 6.375  L 205 44.625  C 205 48.195  201.778571428571 51  197.678571428571 51  L 43 51  L 7.32142857142857 51  C 3.22142857142855 51  0 48.195  0 44.625  Z " fill-rule="evenodd" />
    </mask>
  </defs>
  <g transform="matrix(1 0 0 1 -59 -527 )">
    <path d="M 0 44.625  L 0 6.375  C 0 2.80499999999998  3.22142857142855 0  7.32142857142857 0  L 96.6428571428571 0  L 115 0  L 197.678571428571 0  C 201.778571428571 0  205 2.80499999999998  205 6.375  L 205 44.625  C 205 48.195  201.778571428571 51  197.678571428571 51  L 43 51  L 7.32142857142857 51  C 3.22142857142855 51  0 48.195  0 44.625  Z " fill-rule="nonzero" fill="#ffffff" stroke="none" transform="matrix(1 0 0 1 59 527 )" />
    <path d="M 0 44.625  L 0 6.375  C 0 2.80499999999998  3.22142857142855 0  7.32142857142857 0  L 96.6428571428571 0  L 115 0  L 197.678571428571 0  C 201.778571428571 0  205 2.80499999999998  205 6.375  L 205 44.625  C 205 48.195  201.778571428571 51  197.678571428571 51  L 43 51  L 7.32142857142857 51  C 3.22142857142855 51  0 48.195  0 44.625  Z " stroke-width="2" stroke="#797979" fill="none" transform="matrix(1 0 0 1 59 527 )" mask="url(#clip348)" />
  </g>
</svg>