<?xml version="1.0" encoding="utf-8"?>
<svg version="1.1" xmlns:xlink="http://www.w3.org/1999/xlink" width="205px" height="57px" xmlns="http://www.w3.org/2000/svg">
  <defs>
    <mask fill="white" id="clip339">
      <path d="M 0 49.875  L 0 7.125  C 0 3.135  3.22142857142855 0  7.32142857142857 0  L 96.6428571428571 0  L 197.678571428571 0  C 201.778571428571 0  205 3.135  205 7.125  L 205 49.875  C 205 53.865  201.778571428571 57  197.678571428571 57  L 7.32142857142857 57  C 3.22142857142855 57  0 53.865  0 49.875  Z " fill-rule="evenodd" />
    </mask>
  </defs>
  <g transform="matrix(1 0 0 1 -59 -814 )">
    <path d="M 0 49.875  L 0 7.125  C 0 3.135  3.22142857142855 0  7.32142857142857 0  L 96.6428571428571 0  L 197.678571428571 0  C 201.778571428571 0  205 3.135  205 7.125  L 205 49.875  C 205 53.865  201.778571428571 57  197.678571428571 57  L 7.32142857142857 57  C 3.22142857142855 57  0 53.865  0 49.875  Z " fill-rule="nonzero" fill="#80ffff" stroke="none" transform="matrix(1 0 0 1 59 814 )" />
    <path d="M 0 49.875  L 0 7.125  C 0 3.135  3.22142857142855 0  7.32142857142857 0  L 96.6428571428571 0  L 197.678571428571 0  C 201.778571428571 0  205 3.135  205 7.125  L 205 49.875  C 205 53.865  201.778571428571 57  197.678571428571 57  L 7.32142857142857 57  C 3.22142857142855 57  0 53.865  0 49.875  Z " stroke-width="2" stroke="#797979" fill="none" transform="matrix(1 0 0 1 59 814 )" mask="url(#clip339)" />
  </g>
</svg>