<?xml version="1.0" encoding="utf-8"?>
<svg version="1.1" xmlns:xlink="http://www.w3.org/1999/xlink" width="205px" height="67px" xmlns="http://www.w3.org/2000/svg">
  <defs>
    <mask fill="white" id="clip376">
      <path d="M 0 58.625  L 0 8.375  C 0 3.68499999999993  3.22142857142855 0  7.32142857142857 0  L 71 0  L 96.6428571428571 0  L 115 0  L 197.678571428571 0  C 201.778571428571 0  205 3.68499999999993  205 8.375  L 205 58.625  C 205 63.3150000000001  201.778571428571 67  197.678571428571 67  L 43 67  L 7.32142857142857 67  C 3.22142857142855 67  0 63.3150000000001  0 58.625  Z " fill-rule="evenodd" />
    </mask>
  </defs>
  <g transform="matrix(1 0 0 1 -59 -575 )">
    <path d="M 0 58.625  L 0 8.375  C 0 3.68499999999993  3.22142857142855 0  7.32142857142857 0  L 71 0  L 96.6428571428571 0  L 115 0  L 197.678571428571 0  C 201.778571428571 0  205 3.68499999999993  205 8.375  L 205 58.625  C 205 63.3150000000001  201.778571428571 67  197.678571428571 67  L 43 67  L 7.32142857142857 67  C 3.22142857142855 67  0 63.3150000000001  0 58.625  Z " fill-rule="nonzero" fill="#ffffff" stroke="none" transform="matrix(1 0 0 1 59 575 )" />
    <path d="M 0 58.625  L 0 8.375  C 0 3.68499999999993  3.22142857142855 0  7.32142857142857 0  L 71 0  L 96.6428571428571 0  L 115 0  L 197.678571428571 0  C 201.778571428571 0  205 3.68499999999993  205 8.375  L 205 58.625  C 205 63.3150000000001  201.778571428571 67  197.678571428571 67  L 43 67  L 7.32142857142857 67  C 3.22142857142855 67  0 63.3150000000001  0 58.625  Z " stroke-width="2" stroke="#797979" fill="none" transform="matrix(1 0 0 1 59 575 )" mask="url(#clip376)" />
  </g>
</svg>