<?xml version="1.0" encoding="utf-8"?>
<svg version="1.1" xmlns:xlink="http://www.w3.org/1999/xlink" width="205px" height="71px" xmlns="http://www.w3.org/2000/svg">
  <defs>
    <mask fill="white" id="clip374">
      <path d="M 0 62.125  L 0 8.875  C 0 3.90499999999997  3.22142857142855 0  7.32142857142857 0  L 96.6428571428571 0  L 99 0  L 197.678571428571 0  C 201.778571428571 0  205 3.90499999999997  205 8.875  L 205 62.125  C 205 67.095  201.778571428571 71  197.678571428571 71  L 7.32142857142857 71  C 3.22142857142855 71  0 67.095  0 62.125  Z " fill-rule="evenodd" />
    </mask>
  </defs>
  <g transform="matrix(1 0 0 1 -59 -654 )">
    <path d="M 0 62.125  L 0 8.875  C 0 3.90499999999997  3.22142857142855 0  7.32142857142857 0  L 96.6428571428571 0  L 99 0  L 197.678571428571 0  C 201.778571428571 0  205 3.90499999999997  205 8.875  L 205 62.125  C 205 67.095  201.778571428571 71  197.678571428571 71  L 7.32142857142857 71  C 3.22142857142855 71  0 67.095  0 62.125  Z " fill-rule="nonzero" fill="#ffffff" stroke="none" transform="matrix(1 0 0 1 59 654 )" />
    <path d="M 0 62.125  L 0 8.875  C 0 3.90499999999997  3.22142857142855 0  7.32142857142857 0  L 96.6428571428571 0  L 99 0  L 197.678571428571 0  C 201.778571428571 0  205 3.90499999999997  205 8.875  L 205 62.125  C 205 67.095  201.778571428571 71  197.678571428571 71  L 7.32142857142857 71  C 3.22142857142855 71  0 67.095  0 62.125  Z " stroke-width="2" stroke="#797979" fill="none" transform="matrix(1 0 0 1 59 654 )" mask="url(#clip374)" />
  </g>
</svg>