<?xml version="1.0" encoding="utf-8"?>
<svg version="1.1" xmlns:xlink="http://www.w3.org/1999/xlink" width="205px" height="68px" xmlns="http://www.w3.org/2000/svg">
  <defs>
    <mask fill="white" id="clip378">
      <path d="M 0 59.5  L 0 8.5  C 0 3.74  3.22142857142855 0  7.32142857142857 0  L 96.6428571428571 0  L 135 0  L 197.678571428571 0  C 201.778571428571 0  205 3.74  205 8.5  L 205 59.5  C 205 64.26  201.778571428571 68  197.678571428571 68  L 7.32142857142857 68  C 3.22142857142855 68  0 64.26  0 59.5  Z " fill-rule="evenodd" />
    </mask>
  </defs>
  <g transform="matrix(1 0 0 1 -59 -496 )">
    <path d="M 0 59.5  L 0 8.5  C 0 3.74  3.22142857142855 0  7.32142857142857 0  L 96.6428571428571 0  L 135 0  L 197.678571428571 0  C 201.778571428571 0  205 3.74  205 8.5  L 205 59.5  C 205 64.26  201.778571428571 68  197.678571428571 68  L 7.32142857142857 68  C 3.22142857142855 68  0 64.26  0 59.5  Z " fill-rule="nonzero" fill="#ffffff" stroke="none" transform="matrix(1 0 0 1 59 496 )" />
    <path d="M 0 59.5  L 0 8.5  C 0 3.74  3.22142857142855 0  7.32142857142857 0  L 96.6428571428571 0  L 135 0  L 197.678571428571 0  C 201.778571428571 0  205 3.74  205 8.5  L 205 59.5  C 205 64.26  201.778571428571 68  197.678571428571 68  L 7.32142857142857 68  C 3.22142857142855 68  0 64.26  0 59.5  Z " stroke-width="2" stroke="#797979" fill="none" transform="matrix(1 0 0 1 59 496 )" mask="url(#clip378)" />
  </g>
</svg>