<?xml version="1.0" encoding="utf-8"?>
<svg version="1.1" xmlns:xlink="http://www.w3.org/1999/xlink" width="205px" height="70px" xmlns="http://www.w3.org/2000/svg">
  <defs>
    <mask fill="white" id="clip381">
      <path d="M 0 60.7894736842105  L 0 9.21052631578947  C 0 4.05263157894735  2.2 0  5 0  L 79 0  L 94.4883720930233 0  L 97.8627450980392 0  L 106.116279069767 0  L 139 0  L 200 0  C 202.8 0  205 4.05263157894735  205 9.21052631578947  L 205 60.7894736842105  C 205 65.9473684210526  202.8 70  200 70  L 5 70  C 2.2 70  0 65.9473684210526  0 60.7894736842105  Z " fill-rule="evenodd" />
    </mask>
  </defs>
  <g transform="matrix(1 0 0 1 -59 -410 )">
    <path d="M 0 60.7894736842105  L 0 9.21052631578947  C 0 4.05263157894735  2.2 0  5 0  L 79 0  L 94.4883720930233 0  L 97.8627450980392 0  L 106.116279069767 0  L 139 0  L 200 0  C 202.8 0  205 4.05263157894735  205 9.21052631578947  L 205 60.7894736842105  C 205 65.9473684210526  202.8 70  200 70  L 5 70  C 2.2 70  0 65.9473684210526  0 60.7894736842105  Z " fill-rule="nonzero" fill="#80ffff" stroke="none" transform="matrix(1 0 0 1 59 410 )" />
    <path d="M 0 60.7894736842105  L 0 9.21052631578947  C 0 4.05263157894735  2.2 0  5 0  L 79 0  L 94.4883720930233 0  L 97.8627450980392 0  L 106.116279069767 0  L 139 0  L 200 0  C 202.8 0  205 4.05263157894735  205 9.21052631578947  L 205 60.7894736842105  C 205 65.9473684210526  202.8 70  200 70  L 5 70  C 2.2 70  0 65.9473684210526  0 60.7894736842105  Z " stroke-width="2" stroke="#797979" fill="none" transform="matrix(1 0 0 1 59 410 )" mask="url(#clip381)" />
  </g>
</svg>