<?xml version="1.0" encoding="utf-8"?>
<svg version="1.1" xmlns:xlink="http://www.w3.org/1999/xlink" width="140px" height="54px" xmlns="http://www.w3.org/2000/svg">
  <defs>
    <mask fill="white" id="clip361">
      <path d="M 0 47.25  L 0 6.75  C 0 2.97000000000006  2.20000000000005 0  5 0  L 75 0  L 135 0  C 137.8 0  140 2.97000000000006  140 6.75  L 140 47.25  C 140 51.0299999999999  137.8 54  135 54  L 5 54  C 2.20000000000005 54  0 51.0299999999999  0 47.25  Z " fill-rule="evenodd" />
    </mask>
  </defs>
  <g transform="matrix(1 0 0 1 -439 -315 )">
    <path d="M 0 47.25  L 0 6.75  C 0 2.97000000000006  2.20000000000005 0  5 0  L 75 0  L 135 0  C 137.8 0  140 2.97000000000006  140 6.75  L 140 47.25  C 140 51.0299999999999  137.8 54  135 54  L 5 54  C 2.20000000000005 54  0 51.0299999999999  0 47.25  Z " fill-rule="nonzero" fill="#ffffff" stroke="none" transform="matrix(1 0 0 1 439 315 )" />
    <path d="M 0 47.25  L 0 6.75  C 0 2.97000000000006  2.20000000000005 0  5 0  L 75 0  L 135 0  C 137.8 0  140 2.97000000000006  140 6.75  L 140 47.25  C 140 51.0299999999999  137.8 54  135 54  L 5 54  C 2.20000000000005 54  0 51.0299999999999  0 47.25  Z " stroke-width="2" stroke="#797979" fill="none" transform="matrix(1 0 0 1 439 315 )" mask="url(#clip361)" />
  </g>
</svg>