<?xml version="1.0" encoding="utf-8"?>
<svg version="1.1" xmlns:xlink="http://www.w3.org/1999/xlink" width="58px" height="26px" xmlns="http://www.w3.org/2000/svg">
  <defs>
    <mask fill="white" id="clip382">
      <path d="M 0 19.1578947368421  L 0 6.84210526315789  C 0 3.01052631578948  2.20000000000005 0  5 0  L 25 0  L 53 0  C 55.8 0  58 3.01052631578948  58 6.84210526315789  L 58 19.1578947368421  C 58 22.9894736842105  55.8 26  53 26  L 5 26  C 2.20000000000005 26  0 22.9894736842105  0 19.1578947368421  Z " fill-rule="evenodd" />
    </mask>
  </defs>
  <g transform="matrix(1 0 0 1 -1332 -84 )">
    <path d="M 0 19.1578947368421  L 0 6.84210526315789  C 0 3.01052631578948  2.20000000000005 0  5 0  L 25 0  L 53 0  C 55.8 0  58 3.01052631578948  58 6.84210526315789  L 58 19.1578947368421  C 58 22.9894736842105  55.8 26  53 26  L 5 26  C 2.20000000000005 26  0 22.9894736842105  0 19.1578947368421  Z " fill-rule="nonzero" fill="#ffffff" stroke="none" transform="matrix(1 0 0 1 1332 84 )" />
    <path d="M 0 19.1578947368421  L 0 6.84210526315789  C 0 3.01052631578948  2.20000000000005 0  5 0  L 25 0  L 53 0  C 55.8 0  58 3.01052631578948  58 6.84210526315789  L 58 19.1578947368421  C 58 22.9894736842105  55.8 26  53 26  L 5 26  C 2.20000000000005 26  0 22.9894736842105  0 19.1578947368421  Z " stroke-width="2" stroke="#797979" fill="none" transform="matrix(1 0 0 1 1332 84 )" mask="url(#clip382)" />
  </g>
</svg>