<?xml version="1.0" encoding="utf-8"?>
<svg version="1.1" xmlns:xlink="http://www.w3.org/1999/xlink" width="1427px" height="303px" xmlns="http://www.w3.org/2000/svg">
  <defs>
    <mask fill="white" id="clip384">
      <path d="M 0 303  L 0 0  L 1427 0  L 1427 303  L 932.896640826873 303  L 748.529715762274 303  L 0 303  Z " fill-rule="evenodd" />
    </mask>
  </defs>
  <g transform="matrix(1 0 0 1 -23 -619 )">
    <path d="M 0 303  L 0 0  L 1427 0  L 1427 303  L 932.896640826873 303  L 748.529715762274 303  L 0 303  Z " fill-rule="nonzero" fill="#ffffff" stroke="none" transform="matrix(1 0 0 1 23 619 )" />
    <path d="M 0 303  L 0 0  L 1427 0  L 1427 303  L 932.896640826873 303  L 748.529715762274 303  L 0 303  Z " stroke-width="2" stroke="#797979" fill="none" transform="matrix(1 0 0 1 23 619 )" mask="url(#clip384)" />
  </g>
</svg>