<?xml version="1.0" encoding="utf-8"?>
<svg version="1.1" xmlns:xlink="http://www.w3.org/1999/xlink" width="205px" height="54px" xmlns="http://www.w3.org/2000/svg">
  <defs>
    <mask fill="white" id="clip370">
      <path d="M 0 46.8947368421053  L 0 7.10526315789474  C 0 3.12631578947367  2.2 0  5 0  L 79 0  L 94.4883720930233 0  L 97.8627450980392 0  L 106.116279069767 0  L 139 0  L 200 0  C 202.8 0  205 3.12631578947367  205 7.10526315789474  L 205 46.8947368421053  C 205 50.8736842105263  202.8 54  200 54  L 5 54  C 2.2 54  0 50.8736842105263  0 46.8947368421053  Z " fill-rule="evenodd" />
    </mask>
  </defs>
  <g transform="matrix(1 0 0 1 -59 -410 )">
    <path d="M 0 46.8947368421053  L 0 7.10526315789474  C 0 3.12631578947367  2.2 0  5 0  L 79 0  L 94.4883720930233 0  L 97.8627450980392 0  L 106.116279069767 0  L 139 0  L 200 0  C 202.8 0  205 3.12631578947367  205 7.10526315789474  L 205 46.8947368421053  C 205 50.8736842105263  202.8 54  200 54  L 5 54  C 2.2 54  0 50.8736842105263  0 46.8947368421053  Z " fill-rule="nonzero" fill="#ffffff" stroke="none" transform="matrix(1 0 0 1 59 410 )" />
    <path d="M 0 46.8947368421053  L 0 7.10526315789474  C 0 3.12631578947367  2.2 0  5 0  L 79 0  L 94.4883720930233 0  L 97.8627450980392 0  L 106.116279069767 0  L 139 0  L 200 0  C 202.8 0  205 3.12631578947367  205 7.10526315789474  L 205 46.8947368421053  C 205 50.8736842105263  202.8 54  200 54  L 5 54  C 2.2 54  0 50.8736842105263  0 46.8947368421053  Z " stroke-width="2" stroke="#797979" fill="none" transform="matrix(1 0 0 1 59 410 )" mask="url(#clip370)" />
  </g>
</svg>