<?xml version="1.0" encoding="utf-8"?>
<svg version="1.1" xmlns:xlink="http://www.w3.org/1999/xlink" width="205px" height="59px" xmlns="http://www.w3.org/2000/svg">
  <defs>
    <mask fill="white" id="clip367">
      <path d="M 0 51.625  L 0 7.375  C 0 3.24499999999997  3.22142857142855 0  7.32142857142857 0  L 96.6428571428571 0  L 115 0  L 197.678571428571 0  C 201.778571428571 0  205 3.24499999999997  205 7.375  L 205 51.625  C 205 55.755  201.778571428571 59  197.678571428571 59  L 43 59  L 7.32142857142857 59  C 3.22142857142855 59  0 55.755  0 51.625  Z " fill-rule="evenodd" />
    </mask>
  </defs>
  <g transform="matrix(1 0 0 1 -59 -551 )">
    <path d="M 0 51.625  L 0 7.375  C 0 3.24499999999997  3.22142857142855 0  7.32142857142857 0  L 96.6428571428571 0  L 115 0  L 197.678571428571 0  C 201.778571428571 0  205 3.24499999999997  205 7.375  L 205 51.625  C 205 55.755  201.778571428571 59  197.678571428571 59  L 43 59  L 7.32142857142857 59  C 3.22142857142855 59  0 55.755  0 51.625  Z " fill-rule="nonzero" fill="#80ffff" stroke="none" transform="matrix(1 0 0 1 59 551 )" />
    <path d="M 0 51.625  L 0 7.375  C 0 3.24499999999997  3.22142857142855 0  7.32142857142857 0  L 96.6428571428571 0  L 115 0  L 197.678571428571 0  C 201.778571428571 0  205 3.24499999999997  205 7.375  L 205 51.625  C 205 55.755  201.778571428571 59  197.678571428571 59  L 43 59  L 7.32142857142857 59  C 3.22142857142855 59  0 55.755  0 51.625  Z " stroke-width="2" stroke="#797979" fill="none" transform="matrix(1 0 0 1 59 551 )" mask="url(#clip367)" />
  </g>
</svg>