<?xml version="1.0" encoding="utf-8"?>
<svg version="1.1" xmlns:xlink="http://www.w3.org/1999/xlink" width="205px" height="64px" xmlns="http://www.w3.org/2000/svg">
  <defs>
    <mask fill="white" id="clip369">
      <path d="M 0 56  L 0 8  C 0 3.52  3.22142857142855 0  7.32142857142857 0  L 96.6428571428571 0  L 197.678571428571 0  C 201.778571428571 0  205 3.52  205 8  L 205 56  C 205 60.48  201.778571428571 64  197.678571428571 64  L 7.32142857142857 64  C 3.22142857142855 64  0 60.48  0 56  Z " fill-rule="evenodd" />
    </mask>
  </defs>
  <g transform="matrix(1 0 0 1 -59 -476 )">
    <path d="M 0 56  L 0 8  C 0 3.52  3.22142857142855 0  7.32142857142857 0  L 96.6428571428571 0  L 197.678571428571 0  C 201.778571428571 0  205 3.52  205 8  L 205 56  C 205 60.48  201.778571428571 64  197.678571428571 64  L 7.32142857142857 64  C 3.22142857142855 64  0 60.48  0 56  Z " fill-rule="nonzero" fill="#80ffff" stroke="none" transform="matrix(1 0 0 1 59 476 )" />
    <path d="M 0 56  L 0 8  C 0 3.52  3.22142857142855 0  7.32142857142857 0  L 96.6428571428571 0  L 197.678571428571 0  C 201.778571428571 0  205 3.52  205 8  L 205 56  C 205 60.48  201.778571428571 64  197.678571428571 64  L 7.32142857142857 64  C 3.22142857142855 64  0 60.48  0 56  Z " stroke-width="2" stroke="#797979" fill="none" transform="matrix(1 0 0 1 59 476 )" mask="url(#clip369)" />
  </g>
</svg>