<?xml version="1.0" encoding="utf-8"?>
<svg version="1.1" xmlns:xlink="http://www.w3.org/1999/xlink" width="243px" height="56px" xmlns="http://www.w3.org/2000/svg">
  <defs>
    <mask fill="white" id="clip326">
      <path d="M 0 49  L 0 7  C 0 3.08  3.81857142857141 0  8.67857142857143 0  L 114.557142857143 0  L 234.321428571429 0  C 239.181428571429 0  243 3.08  243 7  L 243 49  C 243 52.92  239.181428571429 56  234.321428571429 56  L 8.67857142857143 56  C 3.81857142857141 56  0 52.92  0 49  Z " fill-rule="evenodd" />
    </mask>
  </defs>
  <g transform="matrix(1 0 0 1 -302 -340 )">
    <path d="M 0 49  L 0 7  C 0 3.08  3.81857142857141 0  8.67857142857143 0  L 114.557142857143 0  L 234.321428571429 0  C 239.181428571429 0  243 3.08  243 7  L 243 49  C 243 52.92  239.181428571429 56  234.321428571429 56  L 8.67857142857143 56  C 3.81857142857141 56  0 52.92  0 49  Z " fill-rule="nonzero" fill="#80ffff" stroke="none" transform="matrix(1 0 0 1 302 340 )" />
    <path d="M 0 49  L 0 7  C 0 3.08  3.81857142857141 0  8.67857142857143 0  L 114.557142857143 0  L 234.321428571429 0  C 239.181428571429 0  243 3.08  243 7  L 243 49  C 243 52.92  239.181428571429 56  234.321428571429 56  L 8.67857142857143 56  C 3.81857142857141 56  0 52.92  0 49  Z " stroke-width="2" stroke="#797979" fill="none" transform="matrix(1 0 0 1 302 340 )" mask="url(#clip326)" />
  </g>
</svg>